<svg width="85" height="27" viewBox="0 0 85 27" fill="none" xmlns="http://www.w3.org/2000/svg">
<g clip-path="url(#clip0_4_154)">
<path d="M14.2797 1.62027L0 8.23313L3.55799 21.774L6.26588 21.4415L5.52132 12.9275L6.41046 12.5313L7.94584 21.2348L12.5737 20.6666L11.7511 11.2692L12.6315 10.8774L14.3202 20.4526L19.0015 19.8772L18.1008 9.57623L18.9914 9.1801L20.8376 19.6517L25.4654 19.0835V4.42213L14.2797 1.62027ZM14.6151 22.1572L14.8507 23.4901L25.4654 25.2597V20.8242L14.6209 22.1572H14.6151ZM35.5047 19.3784V21.2044H37.7558C37.756 21.5747 37.6604 21.9388 37.4782 22.2612C37.2877 22.5825 37.0058 22.8397 36.6686 23C36.2653 23.1843 35.825 23.2733 35.3818 23.2603C34.8701 23.2744 34.3661 23.1333 33.9361 22.8555C33.5161 22.5639 33.1921 22.1544 33.005 21.6786C32.7718 21.0837 32.6602 20.448 32.6768 19.8093C32.6598 19.1754 32.774 18.5449 33.0123 17.9572C33.2071 17.489 33.5335 17.0872 33.952 16.8006C34.3739 16.5267 34.8688 16.3866 35.3717 16.3987C35.6336 16.3964 35.8944 16.431 36.1466 16.5014C36.371 16.5656 36.5828 16.6678 36.7727 16.8035C36.953 16.9335 37.1087 17.0946 37.2324 17.2792C37.3618 17.4767 37.4593 17.6933 37.5216 17.9211H40.0184C39.953 17.3972 39.7829 16.8917 39.5181 16.4349C39.2547 15.9842 38.909 15.5869 38.4989 15.2638C38.0692 14.9279 37.5844 14.6691 37.0661 14.499C36.5033 14.3158 35.9145 14.225 35.3226 14.2301C34.63 14.2243 33.9428 14.352 33.2985 14.606C32.6794 14.8525 32.1197 15.2275 31.6561 15.7062C31.1711 16.2121 30.7965 16.8132 30.5559 17.4715C30.2812 18.2332 30.1475 19.0386 30.1612 19.8483C30.1612 20.9991 30.38 21.9914 30.8176 22.8251C31.2314 23.6281 31.8685 24.2944 32.6523 24.7436C33.4464 25.1673 34.3288 25.399 35.2286 25.4201C36.1285 25.4412 37.0207 25.2511 37.8338 24.865C38.5374 24.5081 39.1232 23.956 39.521 23.2747C39.9307 22.5817 40.135 21.7528 40.134 20.788V19.377L35.5047 19.3784ZM66.5927 25.2785V14.3718H74.0629V16.3901H69.0577V18.8131H73.1044V20.8314H69.0577V23.2603H74.0745V25.2785H66.5927ZM81.3148 17.5727C81.3038 17.3852 81.2524 17.2023 81.164 17.0366C81.0757 16.8709 80.9525 16.7263 80.803 16.6127C80.5008 16.3828 80.0801 16.2686 79.5466 16.2686C79.2385 16.2583 78.9312 16.3074 78.6416 16.4132C78.4231 16.4929 78.2313 16.6321 78.0879 16.8151C77.9636 16.9824 77.8962 17.185 77.8956 17.3934C77.8888 17.5595 77.9284 17.7242 78.0098 17.8691C78.0956 18.0131 78.2145 18.1346 78.3568 18.2233C78.5236 18.3314 78.7033 18.4184 78.8917 18.4821C79.1113 18.5586 79.3353 18.6218 79.5625 18.6714L80.5211 18.8941C80.9909 18.994 81.4488 19.1433 81.8873 19.3394C82.2676 19.5089 82.6189 19.7373 82.9282 20.016C83.2115 20.2739 83.4371 20.5887 83.5904 20.9398C83.7508 21.3187 83.8301 21.727 83.8232 22.1384C83.8394 22.7611 83.6604 23.3732 83.3114 23.8892C82.9424 24.4015 82.4326 24.7958 81.8439 25.0241C81.11 25.3075 80.3273 25.4431 79.5408 25.4231C78.7426 25.4402 77.9487 25.3022 77.2031 25.0168C76.5751 24.7729 76.0351 24.3458 75.6532 23.7909C75.2841 23.2453 75.0913 22.5649 75.0749 21.7495H77.4503C77.4534 22.0643 77.5527 22.3708 77.7348 22.6276C77.917 22.8845 78.1734 23.0795 78.4695 23.1865C78.8036 23.3135 79.1589 23.3753 79.5163 23.3687C79.8442 23.3758 80.1706 23.3224 80.4791 23.2111C80.7228 23.1251 80.939 22.9753 81.1051 22.7774C81.2516 22.5932 81.3316 22.365 81.3321 22.1297C81.3344 21.9187 81.2616 21.7137 81.1268 21.5514C80.9617 21.3712 80.7567 21.2321 80.5283 21.1451C80.2057 21.0137 79.8725 20.9102 79.5322 20.8357L78.3654 20.5538C77.4353 20.3321 76.7014 19.9823 76.1636 19.5042C75.6258 19.0261 75.3588 18.3784 75.3626 17.5611C75.3456 16.934 75.5345 16.3185 75.9004 15.8089C76.2835 15.2906 76.7995 14.8855 77.3939 14.6364C78.0793 14.3457 78.8182 14.2024 79.5625 14.2156C80.3034 14.199 81.0392 14.3425 81.7196 14.6364C82.2973 14.8878 82.7935 15.2953 83.1523 15.8132C83.4972 16.3321 83.6785 16.9425 83.6728 17.5654L81.3148 17.5727ZM64.8347 25.2785H62.3957V16.9872L62.1456 16.9843L59.682 25.2785H57.2445L54.8474 16.9843L54.5366 16.9872V25.2785H52.0976V14.3718H56.2426L58.336 21.6815H58.589L60.6825 14.3718H64.8347V25.2785ZM48.2577 25.2785H50.8991L47.237 14.3732H43.8901L40.2222 25.2785H42.8679L43.5807 22.8873H47.5449L48.2577 25.2785ZM44.1474 20.9847L45.3358 16.9872H45.784L46.9782 20.9847H44.1474ZM84.4231 15.5255C84.3099 15.5251 84.1992 15.4915 84.1049 15.4288C84.0106 15.3661 83.9367 15.277 83.8926 15.1727C83.8627 15.1018 83.8474 15.0256 83.8474 14.9486C83.8474 14.8717 83.8627 14.7955 83.8926 14.7246C83.9213 14.656 83.9631 14.5937 84.0154 14.5409C84.0686 14.4887 84.1308 14.4466 84.1991 14.4166C84.3428 14.3587 84.5034 14.3587 84.6472 14.4166C84.7157 14.4462 84.7779 14.4884 84.8308 14.5409C84.8835 14.5937 84.9257 14.656 84.9552 14.7246C84.985 14.7955 85.0004 14.8717 85.0004 14.9486C85.0004 15.0256 84.985 15.1018 84.9552 15.1727C84.9257 15.2412 84.8835 15.3035 84.8308 15.3563C84.7782 15.4092 84.7159 15.4515 84.6472 15.4807C84.5763 15.5104 84.5001 15.5256 84.4231 15.5255ZM84.4231 15.3679C84.4978 15.3688 84.5713 15.3493 84.6357 15.3115C84.6975 15.2768 84.7497 15.2271 84.7875 15.167C84.8244 15.1027 84.8438 15.0299 84.8438 14.9559C84.8438 14.8818 84.8244 14.809 84.7875 14.7448C84.7491 14.6847 84.6964 14.6351 84.6342 14.6002C84.57 14.5633 84.4972 14.5439 84.4231 14.5439C84.3491 14.5439 84.2763 14.5633 84.2121 14.6002C84.153 14.6362 84.1035 14.6858 84.0675 14.7448C84.0296 14.8087 84.0096 14.8816 84.0096 14.9559C84.0096 15.0302 84.0296 15.1031 84.0675 15.167C84.1035 15.226 84.153 15.2755 84.2121 15.3115C84.276 15.3491 84.349 15.3686 84.4231 15.3679ZM84.2121 15.2016V14.6711H84.4694C84.5039 14.6704 84.5381 14.6778 84.5692 14.6927C84.5971 14.7061 84.6207 14.7272 84.6371 14.7535C84.6541 14.7824 84.6626 14.8154 84.6617 14.8489C84.6628 14.8826 84.6537 14.9158 84.6357 14.9443C84.6195 14.971 84.5952 14.9918 84.5663 15.0036C84.5346 15.0181 84.4999 15.025 84.4651 15.0238H84.2916V14.9197H84.4362C84.4551 14.9207 84.4737 14.9145 84.4882 14.9024C84.495 14.8953 84.5004 14.8869 84.5038 14.8777C84.5073 14.8685 84.5089 14.8587 84.5084 14.8489C84.5092 14.839 84.5077 14.8291 84.5042 14.8199C84.5007 14.8107 84.4953 14.8023 84.4882 14.7954C84.4737 14.7833 84.4551 14.7771 84.4362 14.778H84.3566V15.2016H84.2121ZM84.5576 14.9588L84.6761 15.2016H84.5157L84.4072 14.9588H84.5576ZM40.8294 1.72147H43.2944V12.6282H40.8294V1.72147ZM55.0007 7.17484C55.0007 8.37192 54.7737 9.38395 54.3197 10.2109C53.898 11.0093 53.2563 11.6701 52.4706 12.115C51.6628 12.5459 50.7614 12.7713 49.8459 12.7713C48.9303 12.7713 48.0289 12.5459 47.2211 12.115C46.4352 11.6684 45.7936 11.0062 45.372 10.2066C44.918 9.3719 44.691 8.35988 44.691 7.17051C44.691 5.98114 44.918 4.9667 45.372 4.1272C45.7928 3.33121 46.4324 2.67209 47.2153 2.22749C48.0234 1.79752 48.9247 1.57265 49.8401 1.57265C50.7554 1.57265 51.6568 1.79752 52.4648 2.22749C53.2505 2.67238 53.8922 3.33316 54.3139 4.13154C54.7679 4.96429 54.9949 5.97873 54.9949 7.17484M52.4865 7.17484C52.5052 6.53313 52.3956 5.89415 52.1641 5.29537C51.9809 4.82737 51.6623 4.42466 51.249 4.13877C50.8261 3.8788 50.3394 3.74117 49.843 3.74117C49.3466 3.74117 48.8599 3.8788 48.437 4.13877C48.0232 4.42488 47.7037 4.82743 47.5189 5.29537C47.0841 6.51063 47.0841 7.83906 47.5189 9.05432C47.703 9.52261 48.0227 9.92532 48.437 10.2109C48.8599 10.4709 49.3466 10.6085 49.843 10.6085C50.3394 10.6085 50.8261 10.4709 51.249 10.2109C51.6628 9.92554 51.9815 9.52267 52.1641 9.05432C52.3954 8.45549 52.5051 7.81654 52.4865 7.17484ZM35.6493 8.82589L36.9158 12.6282H39.6208L38.2126 8.5324H36.2999L36.1857 8.17964C36.55 8.1088 37.1731 7.99892 37.7254 7.62303C38.1122 7.35987 38.4294 7.00677 38.6498 6.59404C38.8701 6.18132 38.987 5.72129 38.9904 5.25344C39.007 4.60721 38.8438 3.96907 38.5191 3.41011C38.2018 2.86885 37.7308 2.43408 37.1659 2.16098C36.5035 1.85426 35.7789 1.70578 35.0493 1.72726H30.6499V12.6282H33.1164V8.82589H35.6493ZM35.603 6.56907C35.2673 6.69252 34.911 6.75044 34.5534 6.73967H33.1164V3.72384H34.5491C34.9069 3.71354 35.2632 3.77448 35.5973 3.90311C35.8614 4.00818 36.0846 4.19581 36.2334 4.43804C36.3852 4.68223 36.4607 4.96612 36.4503 5.25344C36.462 5.53642 36.3874 5.81629 36.2363 6.05583C36.0867 6.2913 35.8644 6.47151 35.603 6.56907ZM55.2334 1.72147V3.74552H59.4695L59.5852 4.09973C59.2266 4.16913 58.6208 4.27611 58.0772 4.63466V12.6311H60.5162V3.73974H63.3528V1.71569L55.2334 1.72147Z" fill="black"/>
</g>
<defs>
<clipPath id="clip0_4_154">
<rect width="85" height="27" fill="white"/>
</clipPath>
</defs>
</svg>
